<svg width="92" height="10" viewBox="0 0 92 10" fill="none" xmlns="http://www.w3.org/2000/svg">
<path d="M7.77539 9H5.73047V5.4375H2.70117V9H0.644531V0.46875H2.70117V3.85547H5.73047V0.46875H7.77539V9ZM12.3926 6.67969L14.0918 0.46875H16.3887L13.5176 9H11.2676L8.41992 0.46875H10.6992L12.3926 6.67969ZM21.416 7.40625H18.5977L18.1055 9H15.9082L19.0371 0.46875H20.9707L24.123 9H21.9141L21.416 7.40625ZM19.0898 5.81836H20.9238L20.0039 2.85938L19.0898 5.81836ZM27.9199 5.98828H26.8066V9H24.75V0.46875H28.1074C29.1191 0.46875 29.9102 0.693359 30.4805 1.14258C31.0508 1.5918 31.3359 2.22656 31.3359 3.04688C31.3359 3.64062 31.2148 4.13281 30.9727 4.52344C30.7344 4.91406 30.3594 5.23047 29.8477 5.47266L31.6289 8.91211V9H29.4258L27.9199 5.98828ZM26.8066 4.40039H28.1074C28.498 4.40039 28.791 4.29883 28.9863 4.0957C29.1855 3.88867 29.2852 3.60156 29.2852 3.23438C29.2852 2.86719 29.1855 2.58008 28.9863 2.37305C28.7871 2.16211 28.4941 2.05664 28.1074 2.05664H26.8066V4.40039ZM38.9824 2.05664H36.4219V9H34.3652V2.05664H31.8516V0.46875H38.9824V2.05664ZM43.0254 5.98828H41.9121V9H39.8555V0.46875H43.2129C44.2246 0.46875 45.0156 0.693359 45.5859 1.14258C46.1562 1.5918 46.4414 2.22656 46.4414 3.04688C46.4414 3.64062 46.3203 4.13281 46.0781 4.52344C45.8398 4.91406 45.4648 5.23047 44.9531 5.47266L46.7344 8.91211V9H44.5312L43.0254 5.98828ZM41.9121 4.40039H43.2129C43.6035 4.40039 43.8965 4.29883 44.0918 4.0957C44.291 3.88867 44.3906 3.60156 44.3906 3.23438C44.3906 2.86719 44.291 2.58008 44.0918 2.37305C43.8926 2.16211 43.5996 2.05664 43.2129 2.05664H41.9121V4.40039ZM52.5293 7.40625H49.7109L49.2188 9H47.0215L50.1504 0.46875H52.084L55.2363 9H53.0273L52.5293 7.40625ZM50.2031 5.81836H52.0371L51.1172 2.85938L50.2031 5.81836ZM62.9883 9H60.9434L57.9199 3.69141V9H55.8633V0.46875H57.9199L60.9375 5.77734V0.46875H62.9883V9ZM68.6895 6.73242C68.6895 6.43164 68.582 6.19727 68.3672 6.0293C68.1562 5.86133 67.7832 5.6875 67.248 5.50781C66.7129 5.32812 66.2754 5.1543 65.9355 4.98633C64.8301 4.44336 64.2773 3.69727 64.2773 2.74805C64.2773 2.27539 64.4141 1.85937 64.6875 1.5C64.9648 1.13672 65.3555 0.855469 65.8594 0.65625C66.3633 0.453125 66.9297 0.351562 67.5586 0.351562C68.1719 0.351562 68.7207 0.460938 69.2051 0.679688C69.6934 0.898437 70.0723 1.21094 70.3418 1.61719C70.6113 2.01953 70.7461 2.48047 70.7461 3H68.6953C68.6953 2.65234 68.5879 2.38281 68.373 2.19141C68.1621 2 67.875 1.9043 67.5117 1.9043C67.1445 1.9043 66.8535 1.98633 66.6387 2.15039C66.4277 2.31055 66.3223 2.51562 66.3223 2.76562C66.3223 2.98438 66.4395 3.18359 66.6738 3.36328C66.9082 3.53906 67.3203 3.72266 67.9102 3.91406C68.5 4.10156 68.9844 4.30469 69.3633 4.52344C70.2852 5.05469 70.7461 5.78711 70.7461 6.7207C70.7461 7.4668 70.4648 8.05273 69.9023 8.47852C69.3398 8.9043 68.5684 9.11719 67.5879 9.11719C66.8965 9.11719 66.2695 8.99414 65.707 8.74805C65.1484 8.49805 64.7266 8.1582 64.4414 7.72852C64.1602 7.29492 64.0195 6.79688 64.0195 6.23438H66.082C66.082 6.69141 66.1992 7.0293 66.4336 7.24805C66.6719 7.46289 67.0566 7.57031 67.5879 7.57031C67.9277 7.57031 68.1953 7.49805 68.3906 7.35352C68.5898 7.20508 68.6895 6.99805 68.6895 6.73242ZM77.1738 5.60156H73.8574V9H71.8008V0.46875H77.5078V2.05664H73.8574V4.01953H77.1738V5.60156ZM83.6543 5.38477H80.4199V7.41797H84.2402V9H78.3633V0.46875H84.252V2.05664H80.4199V3.85547H83.6543V5.38477ZM88.248 5.98828H87.1348V9H85.0781V0.46875H88.4355C89.4473 0.46875 90.2383 0.693359 90.8086 1.14258C91.3789 1.5918 91.6641 2.22656 91.6641 3.04688C91.6641 3.64062 91.543 4.13281 91.3008 4.52344C91.0625 4.91406 90.6875 5.23047 90.1758 5.47266L91.957 8.91211V9H89.7539L88.248 5.98828ZM87.1348 4.40039H88.4355C88.8262 4.40039 89.1191 4.29883 89.3145 4.0957C89.5137 3.88867 89.6133 3.60156 89.6133 3.23438C89.6133 2.86719 89.5137 2.58008 89.3145 2.37305C89.1152 2.16211 88.8223 2.05664 88.4355 2.05664H87.1348V4.40039Z" fill="black"/>
</svg>
