<svg id="Layer_1" data-name="Layer 1" xmlns="http://www.w3.org/2000/svg" viewBox="0 0 200 86.45"><defs><style>.cls-1{fill:#58756b;}</style></defs><title>truck</title><g id="Group_1" data-name="Group 1"><path id="Path_1" data-name="Path 1" class="cls-1" d="M199.89,59.62a.71.71,0,0,0-.06-.28v-.06h0a2.9,2.9,0,0,0-.76-1.42,3.11,3.11,0,0,0-1.54-1s-.05,0-.08,0l-.09,0a13.89,13.89,0,0,0-1.53-6.39,13.23,13.23,0,0,0-5-5.11,86.19,86.19,0,0,0-13.17-7h0a22.71,22.71,0,0,0-6.67-1.39l-.17,0a1.1,1.1,0,0,0-.36,0c-2.16-4.14-18.14-17.54-29.6-23.07l-.09,0a0,0,0,0,1,0,0h0a30.36,30.36,0,0,0-10.61-2.15,44.62,44.62,0,0,0-7.92.28l-.56.06a49,49,0,0,1-7.52.51h0L99.92.29c-.09-.06-.37.14-.43.22s0,.2,0,.23l11.75,10.42a1.89,1.89,0,0,1,.51,1.19l-11.66-.12a1.41,1.41,0,0,0-1.39-1l-2.56,0a1.46,1.46,0,0,0-1.45.94L84.31,12c-.31-.63-.68-.91-1.14-.91l-2.83,0a1.64,1.64,0,0,0-1.51.88l-9.73-.06a1.77,1.77,0,0,0-1.53-.9l-2.87-.06a1.54,1.54,0,0,0-1.59.91l-9.87-.06a2.41,2.41,0,0,0-1.9-1H49a1.46,1.46,0,0,0-1.45,1l-2.7,0-7.66-.08a1.33,1.33,0,0,0-1.25-1h-3.2a1.28,1.28,0,0,0-1.22.93l-1.82,0v.09L14.1,11.55H12.51c-3.23,0-4.73,1.2-5.19,4.12-.4,2.47-.68,4.42-.94,6.27h0v0c0,.08,0,.2,0,.28v.06h.08c-.11.88-.23,1.79-.37,2.69H6v.06c-.06.4-.12.82-.17,1.22h0v.06c-.23,1.76-.43,3.54-.63,5.39C4.57,37.29,4,43.16,3.55,49.52v.06h.08c0,.39-.06.76-.08,1.16h0a.87.87,0,0,0-.66.31,4,4,0,0,0-.36,1.17H2.36v.05a35.6,35.6,0,0,0-.43,5h0v.12h0c-.08,3.49,0,7.57.14,10.24C.65,67.68,0,68,0,68.56c0,1.76.43,3,1.22,3.46a0,0,0,0,1,0,0h0s.06,0,.08.06h.06a15.25,15.25,0,0,0,3.78,1.25l.11,0a.14.14,0,0,1,.11,0l.49.09c1.1.14,2.18.28,3.26.4,2.67.31,5.48.62,8.17.7a1.42,1.42,0,0,0,1.05-.28.48.48,0,0,0,.09-.11l1.81-.14a13,13,0,0,0,26,1L48,74.72a2.54,2.54,0,0,0,.23.34,3.53,3.53,0,0,0,2.53.65l99.88.06a5,5,0,0,0,1.45-.12l3.21.2a13.06,13.06,0,0,0,25.82-.48h3.06a1,1,0,0,0,.8.65l12.51.15c.83,0,1.36-.29,1.42-.77v-.23s0-.08,0-.14a1.18,1.18,0,0,0-.51-.57h0s0,0-.08,0h.14l-.34-.12s-.06,0-.11,0l.7-6.52c1-.12,1.31-.54,1.31-1.65V60.28C200,60.11,200,59.85,199.89,59.62Zm-2.3,8.18h0l.88,0-.71,6.55h-2.58a.94.94,0,0,1-.63-.28.67.67,0,0,1-.22-.57,11,11,0,0,1,1.33-4.79c.43-.63.68-.83,1-.88ZM196,60.56a4,4,0,0,0-.77-1.7l4.49.54a2.21,2.21,0,0,1,.05.25,4,4,0,0,1,.06.68v.26l-3.38-.28a.46.46,0,0,0-.45.25ZM184.34,52.7l.54-.62,12.31,4.68h0a.19.19,0,0,0,.09.05v.06h.05a.49.49,0,0,1,.17.06A5,5,0,0,1,199,58a3.77,3.77,0,0,1,.68,1.3l-4.54-.53c-1.93-2.56-6.44-4.32-10.84-6Zm-5.2,5.87C176.33,56.19,172.36,55,167,55a14.85,14.85,0,0,0-8,2.66s0,0-.06,0a5.4,5.4,0,0,0,0-.56h0l.14-6.11c1.48-.9,4.28-1.87,9.62-1.73,3.52.06,9.45,2.19,13.56,5.54ZM152,67.71l.11,0c1.2-4.65,2.9-7.15,6.61-9.68v0a1.24,1.24,0,0,1-.48.51c-3.83,2.73-6,6.93-6.75,13.14-.26,2.1-1.79,2.27-4.09,2.27l-28.43,0c-.77,0-1.22-.34-1.22-.91V73H147.9c1.65,0,1.93-.14,2.41-1a11,11,0,0,0,1.2-3.46.82.82,0,0,0-.26-.66,1.24,1.24,0,0,0-.82-.42l-32.66-.91,0-4.14h0v-.12h0l0-2.86,38,.23h0a.4.4,0,0,0,.34-.35v-.08H156v.08a.26.26,0,0,1-.23.23l-37.94-.25v-.69l37.91.26h0A.21.21,0,0,1,156,59v0h.11a.33.33,0,0,0-.31-.35h0l-37.91-.25,0-2.21a8.68,8.68,0,0,0-1-3.92l39.33.23h0a3.65,3.65,0,0,0,2.21-1c.14-.11.29-.2.46-.31a1,1,0,0,1,.17-.11l-.15,6h0a2,2,0,0,1,0,.65C154.94,60.42,153.18,62.94,152,67.71ZM65.61,65.13l45.63,1.25-.74.91,0,4.68v0l.88.82H66.23c-.11-2.44-.34-5.08-.62-7.69Zm.51,7.69H52.7c-1,0-1.11-.54-1.19-1.08L50.77,66a.93.93,0,0,1,.17-.82,1.63,1.63,0,0,1,1.27-.4h.06l13.23.37c.28,2.61.5,5.25.62,7.69ZM46.4,58.29a.25.25,0,0,1,.22-.23l18.08.12.08.68-18.16-.12h0a.28.28,0,0,1-.22-.22Zm18.44-.11,46.8.31v.68l-46.71-.31a2.59,2.59,0,0,1-.09-.68ZM18.42,73.56a.82.82,0,0,1-.23.68,1.31,1.31,0,0,1-1,.23c-2.53-.15-5.25-.37-8.12-.69L7.8,73.61h0C3.94,73,2.13,71.17,2.13,67.83h.11v-.06c-.11-2.7-.2-6.81-.11-10.3l1.36,0c-.11,4.34.09,9.36.11,10.27C4,72.65,9.54,73.1,16,73.61c.74.06,1.51.12,2.27.2V73.7L16,73.5c-6.41-.51-12-1-12.31-5.73-.12-2.87-.2-6.87-.12-10.25l8.29.26-.06,2.16c0,1.76.4,3,2.44,3.26l6.36.88A20.92,20.92,0,0,0,18.42,73.56ZM5.28,73.27l-.11,0A13.4,13.4,0,0,1,1.42,72s-.09,0-.11,0h0C.57,71.51.17,70.29.17,68.59c0-.48.57-.71,1.85-.77,0,3,1.44,4.8,4.39,5.62a2.84,2.84,0,0,0-.51,0l-.54-.09A.13.13,0,0,1,5.28,73.27ZM2.53,52.44H3.86a40.9,40.9,0,0,0-.37,4.94l-1.36,0A42.57,42.57,0,0,1,2.53,52.44Zm1.1,4.94A40.9,40.9,0,0,1,4,52.44h.71a.57.57,0,0,0,.57-.56V51l6.81.08L12,57.64ZM4.71,51h.46v.91a.47.47,0,0,1-.46.45H4a3.11,3.11,0,0,1,.34-1.11A.57.57,0,0,1,4.71,51Zm.43-3.89a8.72,8.72,0,0,1-1.25.06C4.46,40,5.17,33.06,6,26.45a3.89,3.89,0,0,1,1,.11C6.3,33,5.68,39.79,5.14,47.08Zm2-20.49a1.24,1.24,0,0,1,.46.29A2.16,2.16,0,0,1,8,28.52L7.46,44.73a2.23,2.23,0,0,1-2.18,2.35C5.79,39.79,6.41,33,7.15,26.59ZM6,26.34c.05-.4.08-.77.14-1.17h1c-.06.43-.08.83-.14,1.25A5,5,0,0,0,6,26.34ZM3.92,47.28a8.72,8.72,0,0,0,1.25-.06c-.06.8-.12,1.59-.17,2.41a.6.6,0,0,0-.29-.08h-1c0-.77.08-1.53.17-2.27Zm1.16,2.58a.32.32,0,0,1,.09.23v.74H5a8.09,8.09,0,0,1,0-1Zm.2,1v-.73a.62.62,0,0,0-.2-.43c.06-.85.12-1.67.17-2.5a2.36,2.36,0,0,0,2.33-2.46l.57-16.21a2.3,2.3,0,0,0-.46-1.73,1.21,1.21,0,0,0-.51-.31c.06-.43.12-.85.14-1.28h1a.59.59,0,0,0,.56-.59V22.87a.58.58,0,0,0-.55-.59H7.69a.32.32,0,0,1,0-.14h5l-.31,14.33-.09,4.05v0h0L12.12,51ZM7.35,25.06c.12-.91.23-1.82.34-2.7h.65a.49.49,0,0,1,.46.49v1.73a.48.48,0,0,1-.46.48ZM31.64,11.72h0l5.51,0v0l7.74.06,19,.17,0,4.62-51-.48L13,15a7.67,7.67,0,0,1,.59-3.24l18.05.06ZM64.45,40.84a.34.34,0,0,1-.26-.17V39a.33.33,0,0,1,.31-.17h4a.35.35,0,0,1,.34.34V40.5a.34.34,0,0,1-.34.34ZM64,40.07l-36.18-.34v-.62L64,39.45Zm0-.88v.14L27.81,39v-.22a.36.36,0,0,1,.34-.34l35.47.34h0a.34.34,0,0,1,.34.34v.08Zm-36.18.68L64,40.22v.22a.32.32,0,0,1-.31.34h0l-35.47-.34a.34.34,0,0,1-.34-.34v-.23Zm36.24.8s0,0,0,0h0v.11h-.2s.11-.06.17-.14Zm4.82-.17V39.19a.48.48,0,0,0-.47-.48h-4a.68.68,0,0,0-.32.11l-.08-22.07,41.34.39c3.12,0,4.51,1,4.51,3.32v7.86c0,1.36-.22,3.83-1.67,5.08l-5.76,5c-2.5,2.18-3.29,2.69-8.63,2.64l-25.17-.2a.41.41,0,0,0,.2-.37Zm-4.82-1.62a.47.47,0,0,0-.4-.23l-35.47-.34a.5.5,0,0,0-.48.49v1.3a.47.47,0,0,0,.37.46l-15.64-.12.48-22.5,0-1.65,51,.46ZM8.57,15.72c.43-2.86,1.79-4,4.68-4h.23a7.74,7.74,0,0,0-.57,3.24l0,1.19h0L12.77,22h-5C8,19.87,8.26,17.8,8.57,15.72ZM7.61,22h-1c.29-2.13.6-4.2.91-6.25.37-2.44,1.56-3.66,3.92-4-1.74.45-2.64,1.67-3,3.92Q8,18.81,7.61,22Zm-1,.11h1a.32.32,0,0,1,0,.14h-1c0-.06,0-.08,0-.14Zm5.85,18.42L64.05,41l.08,10.7h0v.17l-11.06-.06h0c-3.49,0-7.15-.2-10-1.47a27.34,27.34,0,0,0-10.42-2.67,20.17,20.17,0,0,0-8.4,2.1A16.86,16.86,0,0,1,17.17,51l-5-.06ZM64.25,51.65h0L64.19,41h.88l28.77.23h.54c4.88,0,5.74-.57,8.18-2.67l5.76-5c1.5-1.28,1.73-3.81,1.73-5.17V20.46c0-2.32-1.48-3.43-4.66-3.43l-41.34-.4L64,12l36,.34h0l11.75.08h0v.06H112l-.35,39.61-47.44-.28v-.17Zm50.11-6.9a14.43,14.43,0,0,0,1.9,6.61c.14.29.26.54.4.8l-4.85,0,.34-39.61,1.84,0,.37,32.26Zm3.41,13.65-6,0,.06-6.13,4.91,0a8.94,8.94,0,0,1,1,3.92Zm-.12,14.3-.82-.76,0-4.46.74-.93h.14Zm0-6.27.06-.05v.05Zm0-.08-.08-.06-.12.14-5.82-.17,0-4.06,6,.09Zm-6-4.26,0-2.81,6,0,0,2.87Zm0-2.92v-.68l6,0v.68Zm-.06-6.92,0,6.13-46.83-.32c-.31-2.55-.53-4.76-.56-6.07Zm0,7-.06,7h-.06l.06-.05-.09-.09-.11.14L65.64,65c-.2-1.91-.43-3.78-.63-5.51,0-.17,0-.37-.05-.54Zm-.15,13.45-.85-.79,0-4.63.77-.93h.14Zm.2-6.32,5.71.17-.71.88,0,4.54v0l.88.83h-5.94Zm6.13.17,32.66.9a1,1,0,0,1,.74.4.77.77,0,0,1,.23.57,11.66,11.66,0,0,1-1.19,3.4c-.43.86-.63,1-2.3,1H117.77Zm50.94-17.4c-4.29-.11-7.61.48-9.62,1.73l.14-5.64a257.15,257.15,0,0,1,24.86,7.49l-1.73,2C178.27,51.39,172.31,49.26,168.76,49.18ZM122.7,36.75c-3.49-1.11-5.42-3.69-5.79-7.66.49,2.89,2.33,6,5.59,6.72L149.86,42h.06c3.29.82,6.38,1.62,9.25,2.35l0,.71c-3.83-1-7.38-1.84-10.22-2.47h0ZM155,31.08a7.36,7.36,0,0,1,.91,1.87v0h0a6.07,6.07,0,0,1,.28,1.9,8.81,8.81,0,0,1-.31,2.75h0l0,.06a5.88,5.88,0,0,1-.77,1.62l0,0a3.7,3.7,0,0,1-.42.46l-.06,0,0,0a1.68,1.68,0,0,1-.34.2,2,2,0,0,0,.05-.42l0-8.32a7.85,7.85,0,0,0-.08-1.08l.25.26.48.6Zm.06-.15a1.92,1.92,0,0,1,.77-.85.41.41,0,0,1,.37,0c.48.29.73,1.45,1,2.53,0,0,0,0,0,.08s-.25.17-1.11.17a6.64,6.64,0,0,0-.93-1.84.14.14,0,0,0-.06-.12Zm.2,8.49a6.09,6.09,0,0,0,.79-1.62,2.52,2.52,0,0,1,1.39.43v.05c-.22,1.08-.51,2.24-1,2.5a.4.4,0,0,1-.37,0L156,40.7a6.56,6.56,0,0,1-1.08-.8,3.64,3.64,0,0,0,.4-.48Zm-1-8,0,8.31a1.22,1.22,0,0,1-.09.46,3,3,0,0,1-.79.14,1.69,1.69,0,0,0,.22-.63l0-8.25a5.62,5.62,0,0,0-.31-1.73,2.06,2.06,0,0,1,.82.51,5.31,5.31,0,0,1,.15,1.19ZM138,17.91l1.79,20.91-17-3.88a6.06,6.06,0,0,1-3.57-2.53,10.32,10.32,0,0,1-1.48-4.4l-.6-9.85c0-2.07,1.79-2.58,3.3-2.66h3.83C128.89,15.5,133.94,15.72,138,17.91Zm.11.06L139.79,19l1.73,20.12-1.65-.34Zm1.82,1.16h0l0,0c3.52,2.24,7.15,4.71,10.36,6.9a7.66,7.66,0,0,1,2.86,3.48l-.28,0a1,1,0,0,0-1.05,1h0v8.85a1,1,0,0,0,1,1h.29a.83.83,0,0,1-.22.2,4.18,4.18,0,0,1-2.9.56l-8.4-1.9Zm13,21.17a.89.89,0,0,1-.91-.89V30.54a.91.91,0,0,1,.91-.91.82.82,0,0,1,.31,0,5.26,5.26,0,0,1,.31,1.76l0,8.25a1.2,1.2,0,0,1-.25.63Zm.42-10.78a7.9,7.9,0,0,0-2.95-3.64c-3.23-2.21-6.92-4.71-10.5-7l-.11,0v0L138,17.77v0c-4.6-2.5-10.53-2.44-15.75-2.41h-1.84c-2.25.08-3.41,1-3.41,2.78l.6,9.84A10.17,10.17,0,0,0,119,32.47a6.49,6.49,0,0,0,3.66,2.58L139.9,39h0l1.65.34v.08L150,41.32a3.91,3.91,0,0,0,.68.06,4.16,4.16,0,0,0,2.3-.63,1.3,1.3,0,0,0,.31-.31,2.68,2.68,0,0,0,.85-.11,2.33,2.33,0,0,1-.68.85A4.38,4.38,0,0,1,150,42c-.48-.12-1-.23-1.44-.37v0L122.59,35.7c-3.6-.82-5.45-4.51-5.62-7.6l-.6-9.91a2.91,2.91,0,0,1,.8-2.24,4.41,4.41,0,0,1,3.23-1.19h5.28c6.08,0,10.56,1,13.79,3.15l10.87,7.18A8.36,8.36,0,0,1,154.17,30a3,3,0,0,0-.85-.45Zm6,14.92C171,47.51,179.23,50,184.74,52.05l-.54.62c-5.82-2.27-16.07-5.22-24.95-7.52Zm38,12.23L196,56.19,195,50.8l.79-.26A14.68,14.68,0,0,1,197.25,56.67ZM196,60.82a.38.38,0,0,1,.38-.4h0l3.37.28v1.73l-3.37-.28a.37.37,0,0,1-.4-.35v-1Zm-5.25-15.47a13,13,0,0,1,5,5s0,0,0,0h0l-.88.28,1,5.42L184.93,52l1.48-2a31.91,31.91,0,0,0,7.35,2.53l.51.14,0-.08c-.68-3.69-4.6-6.64-6.24-7.75-1.93-1.31-4.15-2.41-5.22-2.33A51.61,51.61,0,0,0,170.26,37l0,.11a52.43,52.43,0,0,1,12.37,5.48.76.76,0,0,0-.26.11,1.77,1.77,0,0,0-.51,1.31,6.31,6.31,0,0,0,2,4.31A13.3,13.3,0,0,0,186.32,50l-1.47,2c-5.51-2.07-13.76-4.54-25.51-7.63l.34-14.31c2.1,1.93,7.38,6.05,10.76,6.9h0a.14.14,0,0,1,.09,0c.06,0,.08,0,.17,0h.11a24.11,24.11,0,0,1,6.87,1.39A83.08,83.08,0,0,1,190.78,45.35Zm-4.4,4.46,0,0a11.73,11.73,0,0,1-2.44-1.7,6.21,6.21,0,0,1-2-4.23,1.59,1.59,0,0,1,.45-1.22.6.6,0,0,1,.34-.11s0,0,.06,0l0,0h.08c1,0,2.87.88,5,2.33h0c1.62,1.07,5.48,4,6.19,7.57l-.34-.08a32.77,32.77,0,0,1-7.29-2.53l0,0Zm-45.69-36,.06,0s0,0,.06,0l.17.09-1.73.91.05,0a88.11,88.11,0,0,1,20.95,15.21,39.48,39.48,0,0,0,9,6.08,5,5,0,0,0,.77.25,3.11,3.11,0,0,1,.22.4c-3.37-.88-8.6-5-10.64-6.87l0,0v-.05h-.05a86.38,86.38,0,0,0-20.95-15l2.1-1.1Zm8,4.54.65.42c.14.12.31.2.46.31l.76.52.34.22c.32.23.63.43,1,.66a.36.36,0,0,1,.14.11c2.38,1.67,4.82,3.49,7.24,5.45a82.68,82.68,0,0,1,9.67,8.88A14.37,14.37,0,0,1,170,36.27L169.3,36a38.8,38.8,0,0,1-9-6,88.37,88.37,0,0,0-20.88-15.18l1.64-.85a72.43,72.43,0,0,1,7.61,4.34Zm-18.53-6.7a31.39,31.39,0,0,1,10.41,2.07l-2.07,1.08c-4.65-2.3-7.8-3-13.93-3.09A47.37,47.37,0,0,1,130.14,11.61Zm-8.46.34.57-.06c.43-.05.85-.08,1.28-.14v0c6.84,0,10,.68,14.95,3.12h0a86.7,86.7,0,0,1,21,15l-.34,14.39c-2.61-.68-5.42-1.39-8.37-2.13h0a4.53,4.53,0,0,0,2.72-.88,2.49,2.49,0,0,0,.77-1,1.87,1.87,0,0,0,.48-.26,6.75,6.75,0,0,0,1.1.83,1.74,1.74,0,0,1,.18.11h0a.63.63,0,0,0,.19,0,.52.52,0,0,0,.29-.09c.51-.28.79-1.44,1-2.58a.12.12,0,0,0,0-.14c-.11-.23-.91-.43-1.45-.48a10.45,10.45,0,0,0,.31-2.78,7.23,7.23,0,0,0-.28-1.91h.14c.8,0,1-.11,1-.22a.17.17,0,0,0,0-.17c-.23-1.14-.51-2.3-1-2.58a.51.51,0,0,0-.48,0h0a2,2,0,0,0-.8.85c-.11-.12-.2-.26-.31-.37l-.4-.37A8.26,8.26,0,0,0,150.43,25l-10.87-7.18c-3.24-2.13-7.75-3.18-13.85-3.18h-5.28a4.48,4.48,0,0,0-3.32,1.22,3,3,0,0,0-.82,2.33l.6,9.91a.41.41,0,0,0,0,.19h-.08c.17,4.52,2.16,7.38,5.93,8.57l0,0v0L149,42.77h0c2.83.62,6.41,1.5,10.24,2.49L159.14,51a1.09,1.09,0,0,0-.23.14,3.58,3.58,0,0,1-.45.31,3.48,3.48,0,0,1-2.16.94l-39.39-.23-.42-.85a13.87,13.87,0,0,1-1.9-6.56h0l-.46-32.29h.14l0,0a46.4,46.4,0,0,0,7.43-.51Zm-10.36-.88L99.55.68v0A.61.61,0,0,1,99.86.4l14.07,12-2,0h0a2,2,0,0,0-.57-1.25Zm-15.15.29,2.55,0a1.24,1.24,0,0,1,1.25.85l-5.13-.05a1.33,1.33,0,0,1,1.33-.83Zm-15.83-.15,2.86,0c.43,0,.74.29,1,.85L79,12a1.48,1.48,0,0,1,1.39-.83ZM64.73,11l2.86.06a1.7,1.7,0,0,1,1.42.82l-5.76-.05A1.44,1.44,0,0,1,64.73,11ZM49,10.9h2.3a2.22,2.22,0,0,1,1.75.91l-5.39-.06A1.35,1.35,0,0,1,49,10.9ZM32.8,10.79H36c.51,0,.85.28,1.11.88l-5.42-.06A1.16,1.16,0,0,1,32.8,10.79ZM6.56,22.36h1c-.11.88-.23,1.79-.34,2.7h-1C6.3,24.15,6.41,23.27,6.56,22.36ZM3.72,49.66h1a.43.43,0,0,1,.26.09c0,.37-.06.71-.09,1-.08,0-.14,0-.2,0h-1C3.66,50.43,3.69,50.06,3.72,49.66Zm-.8,1.56A.77.77,0,0,1,3.49,51h1a.34.34,0,0,0-.17.2,3.62,3.62,0,0,0-.35,1.16H2.55a4,4,0,0,1,.37-1.11ZM33.29,86.61A12.94,12.94,0,1,1,46.2,73.67,10.24,10.24,0,0,1,46.11,75v.09h0A13,13,0,0,1,33.29,86.61ZM46.28,75c0-.43.06-.86.06-1.28a13.06,13.06,0,0,0-26.11,0V74l-1.73.14a1,1,0,0,0,.12-.53c.08-11.1,7.52-17.06,14.44-17.06h0a20.23,20.23,0,0,1,2.58.2,14,14,0,0,1,6.73,3c.05,0,.14.11.19.17l.29.25.42.4.06.06a15,15,0,0,1,3.58,6.18,22.73,22.73,0,0,1,.88,7.1,1.51,1.51,0,0,0,.08.76Zm2,0A1.45,1.45,0,0,1,48,73.9,23,23,0,0,0,47,66.72a15.15,15.15,0,0,0-3.52-6.13l-.11-.12h0l-.06,0a5.33,5.33,0,0,0-.42-.4l-.29-.25a1.63,1.63,0,0,0-.2-.17,13.65,13.65,0,0,0-6.78-3A15.17,15.17,0,0,0,33,56.33H33a13.65,13.65,0,0,0-9.88,4.43,16.72,16.72,0,0,0-2.3,3.18L14.36,63C12.66,62.8,12,61.92,12,59.88l.06-2.16,8.06.26h0a8.56,8.56,0,0,0,3.63-1.22A20.73,20.73,0,0,1,33,54.23c7.16.09,12.55,3.69,16.41,11.07l.11-.06a22.45,22.45,0,0,0-6.75-8.17,16.61,16.61,0,0,0-9.74-3,21.11,21.11,0,0,0-9.25,2.52,8.41,8.41,0,0,1-3.57,1.2h0l-8.06-.26L12.26,51l4.94,0a16.62,16.62,0,0,0,7.18-1.28,19.94,19.94,0,0,1,8.34-2.09,26.65,26.65,0,0,1,10.39,2.66c2.83,1.28,6.49,1.45,10,1.48h0l11.07.06c0,1.33.28,3.51.57,6.07l-18.08-.12h0a.35.35,0,0,0-.34.35v.22a.41.41,0,0,0,.34.34h0l18.16.12a2.48,2.48,0,0,1,.06.54c.2,1.73.43,3.6.62,5.47L52.3,64.5a1.91,1.91,0,0,0-1.42.43,1.1,1.1,0,0,0-.2.91l.74,5.76c.08.57.25,1.19,1.3,1.19h13.4c0,.94,0,1.85,0,2.7H50.77A3,3,0,0,1,48.33,75Zm102.32.7-84.36-.05c0-.85,0-1.76-.06-2.7h51.39v.14h0c0,.63.52,1,1.34,1l28.43,0c2.3,0,3.92-.17,4.2-2.36.8-6.18,2.92-10.36,6.73-13a2.73,2.73,0,0,0,.48-.48l.74,1,.08-.09-.79-1a.58.58,0,0,0,0-.14c.06,0,.12-.09.17-.11a15.13,15.13,0,0,1,7.89-2.67c5.37,0,9.31,1.16,12.09,3.52L177.87,60a15.57,15.57,0,0,0-7-3.12,18.52,18.52,0,0,0-2.87-.31h-.31A14.34,14.34,0,0,0,156.47,62a16.35,16.35,0,0,0-2.92,5.59,22.85,22.85,0,0,0-1,6.92v.06a2.8,2.8,0,0,1,0,.4.64.64,0,0,1-.46.56h0l-.85.06.39,0a6.84,6.84,0,0,1-.91.06Zm17.54,10.93a12.94,12.94,0,1,1,12.94-12.94h0a10,10,0,0,1-.11,1.64v.06h0a13,13,0,0,1-12.83,11.24Zm15.92-11.32h-3a14.16,14.16,0,0,0,.11-1.59h0a13.07,13.07,0,1,0-26.13,0,12,12,0,0,0,.17,2.07l-2.9-.17a.78.78,0,0,0,.32-.54V75a.22.22,0,0,1,0-.14h0v-.23a24.82,24.82,0,0,1,1-6.9,17.39,17.39,0,0,1,2.92-5.53,14.25,14.25,0,0,1,11.41-5.39,19.51,19.51,0,0,1,2.86.28,15.76,15.76,0,0,1,6.93,3.12h0l0,0a2.93,2.93,0,0,1,.46.4c3.69,3.18,5.56,7.83,5.62,13.85v.17a1.46,1.46,0,0,0,.11.68Zm0-.91h0c0-.4,0-.8,0-1.16V73.1a22.21,22.21,0,0,0-.82-5.19v0c-.08-.31-.2-.63-.31-.94l-.09-.22-.25-.69c-.09-.17-.17-.37-.26-.54a1.73,1.73,0,0,1-.14-.34,15,15,0,0,0-4.11-5.1l4.39-5.17a14,14,0,0,1,3.44,4l.11-.05a13.68,13.68,0,0,0-3.46-4l1.76-2c4.37,1.71,8.85,3.44,10.75,5.93v.09h.09a4.25,4.25,0,0,1,.85,2v.91a.52.52,0,0,0,.5.54h0l3.38.28v3.58c0,1-.29,1.39-1.25,1.5h-1.51a3.4,3.4,0,0,0-.45,0H183.34v.11h13a2.27,2.27,0,0,0-.74.8,11,11,0,0,0-1.33,4.88.83.83,0,0,0,.28.65,1,1,0,0,0,.71.31H198a.74.74,0,0,1,.29.12s.06,0,.08,0h0a1,1,0,0,1,.46.52.14.14,0,0,1,0,.11h0v.14c0,.31-.39.65-1.3.65l-12.49-.11c-.54.06-1-.62-1-1.5Z" transform="translate(0 -0.28)"/><path id="Path_2" data-name="Path 2" class="cls-1" d="M168.19,64.45a9.22,9.22,0,1,0,9.22,9.22A9.22,9.22,0,0,0,168.19,64.45Zm0,18.36a9.11,9.11,0,1,1,9.11-9.11A9.11,9.11,0,0,1,168.19,82.81Z" transform="translate(0 -0.28)"/><path id="Path_3" data-name="Path 3" class="cls-1" d="M38.71,66.21a9.24,9.24,0,0,0-10.87,15,9,9,0,0,0,5.39,1.76,8.2,8.2,0,0,0,1.48-.11,9.19,9.19,0,0,0,6-3.69,9.29,9.29,0,0,0-2-12.91Zm1.93,12.85a9,9,0,0,1-6,3.63,9.1,9.1,0,1,1,6-3.63Z" transform="translate(0 -0.28)"/><path id="Path_4" data-name="Path 4" class="cls-1" d="M169.67,65.81a.14.14,0,0,1-.09,0c-.11,0-.2,0-.31,0s-.11,0-.2,0-.14,0-.23,0a.83.83,0,0,1-.22,0h-.46a7.6,7.6,0,0,0-1.9.23h-.06v0a8,8,0,0,0-4.79,3.48h0l0,0a8.37,8.37,0,0,0-1.19,3.66v.06h0c0,.17,0,.34,0,.54a8,8,0,1,0,9.51-7.86Zm5.16,3.66-.65.23a7.24,7.24,0,0,0-4.06-3v-.69A7.68,7.68,0,0,1,174.83,69.47Zm.46,4.2A7,7,0,0,1,173.78,78l-2.41-3.32,3.89-1.28a1.15,1.15,0,0,1,0,.26Zm-4.09,1,2.52,3.47c-.11.14-.22.25-.34.39l-2.49-3.43a3,3,0,0,0,.31-1l4-1.31c0,.17,0,.34.05.51Zm0,6.27-.4-.54.43-.17.34.49.09-.09-.35-.45a7.66,7.66,0,0,0,2.05-1.48l.31.46.09-.09-.35-.45c.12-.12.23-.26.35-.37l.36.51A7.23,7.23,0,0,1,171.17,80.93Zm-3-4.14-2.55,3.52c-.17-.06-.31-.14-.48-.2l2.46-3.4a3.66,3.66,0,0,0,.57.05l.43,0,2.49,3.43-.42.17Zm2.44,3.58a6.83,6.83,0,0,1-2.41.42,7,7,0,0,1-2.47-.45L168.16,77Zm-8.43-1.59.4-.54a1.67,1.67,0,0,0,.28.31l-.36.51.08.09.37-.51a6.66,6.66,0,0,0,2,1.5l-.34.48.08.09.37-.48a2,2,0,0,0,.48.19l-.4.54a8.42,8.42,0,0,1-3-2.18Zm-1.07-5.34L165,74.72,162.57,78a6.9,6.9,0,0,1-1.47-4.34Zm4,1.28.06-.06-4.06-1.33a5,5,0,0,1,.06-.54l4,1.31v0a3.26,3.26,0,0,0,.26.91h0l-2.53,3.46a2.8,2.8,0,0,0-.28-.31Zm1.14-3.58.08,0V66.83l.46-.11V71h.11a3,3,0,0,0-1.76,2.75V74l-4-1.3a6.84,6.84,0,0,1,.8-2.38l4,1.3,0-.11-4-1.31a3.79,3.79,0,0,0,.2-.34Zm-3.94-1.41a6.93,6.93,0,0,1,3.91-2.84V71ZM169,65.84l.2,0c.08,0,.14,0,.23,0v.68a6.62,6.62,0,0,0-1.25-.12,6.85,6.85,0,0,0-1.28.12V65.9a9.09,9.09,0,0,1,1.28-.12c.22,0,.43,0,.65,0,0,0,.12,0,.17,0Zm1,.2v.68a4.24,4.24,0,0,0-.45-.11v-.69h.06a3,3,0,0,1,.4.12Zm.12.82a7.17,7.17,0,0,1,3.94,2.87L170.15,71Zm4,3c.08.12.14.26.23.37l-4.06,1.31a3.42,3.42,0,0,0-.85-.57h.11v-4.2a2.28,2.28,0,0,1,.45.11v4.34ZM171.08,74a2.44,2.44,0,0,1-.31,1l-.05.06,0,0a2.92,2.92,0,0,1-2.07,1.47h0a2,2,0,0,1-.48.06,2.76,2.76,0,0,1-.57-.06l0,0v0a2.92,2.92,0,1,1,3.55-2.83l-.06.28Zm-.25,1.16,2.47,3.41a7.62,7.62,0,0,1-2.05,1.47l-2.46-3.4a3,3,0,0,0,2-1.48Zm-3.35,1.45L165,80.06a6.6,6.6,0,0,1-2-1.51l2.5-3.43a3.1,3.1,0,0,0,2,1.53Zm.71-6a3.32,3.32,0,0,0-1.28.29V66.69a6.09,6.09,0,0,1,1.28-.11,5.81,5.81,0,0,1,1.25.11v4.23a3,3,0,0,0-1.25-.26Zm2.21.94,4-1.31a7,7,0,0,1,.8,2.39l-4,1.3c0-.08,0-.2,0-.28a3.17,3.17,0,0,0-.86-2.1Zm-3.6-5.68v.69a2.37,2.37,0,0,0-.46.11V66a3.9,3.9,0,0,1,.46-.12ZM161,72.62l-.62-.2a8.33,8.33,0,0,1,.79-2.38l.62.2A8.33,8.33,0,0,0,161,72.62Zm.88-2.5-.65-.2c0-.11.14-.22.2-.34l.65.23-.2.31Zm-1.53,2.42.65.19a5,5,0,0,0-.06.54l-.65-.22c0-.17,0-.34.06-.51Zm15,.22.6-.2,0-.11-.57.17a6.89,6.89,0,0,0-.79-2.38l.59-.2,0-.12-.63.2c-.08-.11-.14-.25-.23-.37l.63-.19A7.58,7.58,0,0,1,176,73.07l-.62.2a3,3,0,0,0-.06-.51Zm-9.11-6.69v.68a7.29,7.29,0,0,0-4,2.92l-.65-.23a7.79,7.79,0,0,1,4.68-3.37Zm-5.9,7.12.65.22v.29a7.12,7.12,0,0,0,1.54,4.43l-.4.56a7.85,7.85,0,0,1-1.79-5,1.46,1.46,0,0,1,0-.51Zm4.91,7.8.4-.54a6.94,6.94,0,0,0,2.55.46,7.37,7.37,0,0,0,2.5-.46l.4.54a8.24,8.24,0,0,1-2.9.54,7.29,7.29,0,0,1-2.95-.54Zm9-2.3-.39-.56a7.25,7.25,0,0,0,1.53-4.46v-.26l.65-.22c0,.17,0,.31,0,.48A7.73,7.73,0,0,1,174.26,78.69Z" transform="translate(0 -0.28)"/><path id="Path_5" data-name="Path 5" class="cls-1" d="M39.08,68.19l-.06,0-.2-.2a1.06,1.06,0,0,0-.2-.17s0-.06-.08-.06c-.2-.17-.4-.34-.6-.48a6.4,6.4,0,0,0-1.67-.94l-.06,0v0a7.82,7.82,0,0,0-4.2-.45,7,7,0,0,0-1.7.48l0,0-.06,0a7.9,7.9,0,0,0-3.09,2.27l0,0,0,0a3.25,3.25,0,0,0-.31.42,8,8,0,0,0,6.44,12.72,6.85,6.85,0,0,0,1.28-.12,8.06,8.06,0,0,0,6.62-9.28,8.2,8.2,0,0,0-2.08-4.2Zm2.07,6L40.5,74a6.78,6.78,0,0,0-.09-1.42,7.1,7.1,0,0,0-1.47-3.34l.39-.57a7.4,7.4,0,0,1,1.7,3.8,7.17,7.17,0,0,1,.12,1.73Zm-6,2.07v4.29a2.57,2.57,0,0,1-.48.11V76.39a2.41,2.41,0,0,0,.79-.59l4,1.3c-.08.15-.17.29-.25.46Zm4,1.42a2.43,2.43,0,0,1-.14.2,7,7,0,0,1-3.77,2.64V76.42ZM31.42,81.3v-.65l.45.12v.59H32v-.57a6.85,6.85,0,0,0,1.28.12,6.54,6.54,0,0,0,1.25-.12v.57h.11v-.6a2.4,2.4,0,0,0,.48-.11v.63a7.8,7.8,0,0,1-3.69,0Zm-.12-.79a7.33,7.33,0,0,1-2.21-1.08,6.93,6.93,0,0,1-1.73-1.81l3.94-1.28Zm-4-3c-.09-.14-.17-.28-.26-.45l4-1.31a5,5,0,0,0,.43.37,2,2,0,0,0,.4.23v4.25a2.37,2.37,0,0,1-.46-.11V76.11Zm-1.87-3.23.65-.2c0,.14,0,.28,0,.4l-.6.19,0,.12.6-.2A7.82,7.82,0,0,0,26.87,77l-.56.17,0,.11.6-.19c.09.14.17.28.26.45l-.63.2a7.35,7.35,0,0,1-1.13-3.46Zm2.1-4.77a1.43,1.43,0,0,0,.14-.2l2.38,3.32-3.89,1.25a7.2,7.2,0,0,1,1.37-4.37Zm2.72,3.21-2.5-3.47c.12-.14.26-.28.37-.42l2.5,3.43a3.34,3.34,0,0,0-.31.85l-4.09,1.34a2.8,2.8,0,0,1,0-.4Zm3-2.16L35.81,67l.46.17-2.5,3.43.06,0a3.35,3.35,0,0,0-1,0,3,3,0,0,0-2,1.22,1.14,1.14,0,0,0-.15.23L28.23,68.7a6.85,6.85,0,0,1,2.05-1.44l2.5,3.43.08-.08L30.39,67.2a1.66,1.66,0,0,1,.37-.14ZM30.85,67a7,7,0,0,1,4.82,0l-2.44,3.35Zm7.69.82a.86.86,0,0,0,.2.18l.14.14-.4.54a5.4,5.4,0,0,0-1-.83,6.59,6.59,0,0,0-1.08-.65l.4-.54a9,9,0,0,1,1.07.65,5,5,0,0,1,.57.46s0,0,.06,0Zm.71.74-.4.54c-.1-.12-.2-.23-.31-.34l.39-.54,0,0c.1.1.2.2.29.31Zm1.1,5.37-3.94-1.28,2.44-3.35a7.14,7.14,0,0,1,1.42,3.26,5.71,5.71,0,0,1,.08,1.37Zm-4.11-1.2,4.14,1.34c0,.14,0,.28,0,.42l-4.05-1.3a3.48,3.48,0,0,0-.32-.94l.06.06,2.47-3.41a3,3,0,0,1,.28.34Zm4.82,2-.62-.2a3,3,0,0,0,0-.42l.62.19a1.53,1.53,0,0,1,0,.43Zm-6.5,1.59h-.05v0a3,3,0,0,1-2.53,0h0a3,3,0,0,1-.42-.26,2.88,2.88,0,0,1-.46-.39v0h0a2.91,2.91,0,0,1,1.7-4.83,3,3,0,0,1,2.19.52,2.82,2.82,0,0,1,1.16,1.9,3,3,0,0,1-.51,2.18,2.74,2.74,0,0,1-1.08.91Zm-.05.14v4.23a7.67,7.67,0,0,1-2.53,0V76.45a3,3,0,0,0,1.28.29,3.18,3.18,0,0,0,1.25-.29Zm-4.23-2.3A3,3,0,0,0,31,75.66L27,77a6.62,6.62,0,0,1-.74-2.41l4-1.31a2.32,2.32,0,0,0,0,.91Zm4.79-2.92a3.16,3.16,0,0,0-1.19-.51l2.47-3.41a7.73,7.73,0,0,1,1.11.66,12.57,12.57,0,0,1,1,.82L36,72.19a4,4,0,0,0-.87-1Zm.66,4.23a3,3,0,0,0,.54-2.19l4,1.31A7.08,7.08,0,0,1,39.53,77l-4-1.3A.87.87,0,0,0,35.73,75.46Zm1-8.86-.4.54c-.14,0-.28-.14-.42-.19l.4-.54a3.17,3.17,0,0,1,.42.19Zm-6.89,0,.39.54a7.15,7.15,0,0,0-2,1.45l-.4-.54a7.78,7.78,0,0,1,2.05-1.45Zm.48.49-.4-.54.37-.17.4.54-.37.17Zm-2.64,1,.4.54c-.12.15-.26.29-.37.43l-.4-.54a5.27,5.27,0,0,1,.37-.42Zm12,9,.59.2,0-.11-.6-.2a7.14,7.14,0,0,0,.77-2.42l.6.2,0-.11a7.76,7.76,0,0,1-1.11,3.09l-.63-.2a2.83,2.83,0,0,0,.32-.45ZM32,65.9a7.69,7.69,0,0,1,4.11.45l-.39.57a7.28,7.28,0,0,0-5,0l-.4-.54A8.44,8.44,0,0,1,32,65.9ZM26.9,69c.1-.13.2-.27.31-.39l.4.54c-.05.08-.11.14-.17.22a7.08,7.08,0,0,0-1.36,4.49l-.65.2A7.82,7.82,0,0,1,26.9,69Zm-.31,8.83.65-.2A6.93,6.93,0,0,0,29,79.54a7.26,7.26,0,0,0,2.27,1.11v.68a8.06,8.06,0,0,1-2.67-1.25A8,8,0,0,1,26.59,77.87Zm13.05.45a7.72,7.72,0,0,1-4.39,3v-.68a7.07,7.07,0,0,0,3.85-2.69,1.14,1.14,0,0,0,.15-.23l.65.2A1.41,1.41,0,0,1,39.64,78.32Z" transform="translate(0 -0.28)"/><path id="Path_6" data-name="Path 6" class="cls-1" d="M169.33,73.7a1.14,1.14,0,1,0-2.27,0,1.12,1.12,0,0,0,1.13,1.13A1.14,1.14,0,0,0,169.33,73.7Zm-1.14,1a1,1,0,0,1,0-2,1,1,0,0,1,1,1h0a1,1,0,0,1-1,1Z" transform="translate(0 -0.28)"/><path id="Path_7" data-name="Path 7" class="cls-1" d="M33.94,72.76a1.14,1.14,0,0,0-1.33,1.85,1.15,1.15,0,0,0,.68.22,1.14,1.14,0,0,0,.93-.48,1.11,1.11,0,0,0,.2-.85A1.1,1.1,0,0,0,33.94,72.76Zm.17,1.51a1,1,0,0,1-1.42.22,1,1,0,1,1,1.19-1.64.93.93,0,0,1,.4.65,1,1,0,0,1-.17.77Z" transform="translate(0 -0.28)"/><path id="Path_8" data-name="Path 8" class="cls-1" d="M168.19,72.14a.65.65,0,0,0,.63-.65h0a.63.63,0,0,0-.63-.63.66.66,0,0,0-.65.63A.68.68,0,0,0,168.19,72.14Zm0-1.14a.51.51,0,0,1,.51.51.51.51,0,0,1-1,0,.51.51,0,0,1,.51-.51Z" transform="translate(0 -0.28)"/><path id="Path_9" data-name="Path 9" class="cls-1" d="M35.05,72.31a.63.63,0,0,0-.15-.88.55.55,0,0,0-.48-.11.64.64,0,0,0-.54.73.7.7,0,0,0,.26.43.53.53,0,0,0,.37.11h.11A1,1,0,0,0,35.05,72.31Zm-.43.11a.52.52,0,0,1-.4-.08A.44.44,0,0,1,34,72a.51.51,0,0,1,.08-.4.44.44,0,0,1,.34-.2h.09a.56.56,0,0,1,.31.09h0a.5.5,0,0,1,.12.7h0A.38.38,0,0,1,34.62,72.42Z" transform="translate(0 -0.28)"/><path id="Path_10" data-name="Path 10" class="cls-1" d="M170,72.39a.62.62,0,0,0-.4.79h0a.66.66,0,0,0,.6.45.36.36,0,0,0,.2,0,.62.62,0,0,0,.39-.78h0a.6.6,0,0,0-.74-.44Zm.34,1.08a.52.52,0,1,1-.31-1,.47.47,0,0,1,.17,0,.52.52,0,0,1,.16,1Z" transform="translate(0 -0.28)"/><path id="Path_11" data-name="Path 11" class="cls-1" d="M35.59,74.86a.71.71,0,0,0,.31-.37.63.63,0,0,0-.4-.79.66.66,0,0,0-.48,0,.63.63,0,0,0-.31.37.72.72,0,0,0,0,.48.7.7,0,0,0,.37.31.69.69,0,0,0,.2,0A.38.38,0,0,0,35.59,74.86Zm-.74-.34a.47.47,0,0,1,0-.4.53.53,0,0,1,.26-.31.54.54,0,0,1,.22,0,.32.32,0,0,1,.17,0,.51.51,0,0,1,.35.63v0h0a.75.75,0,0,1-.25.31.51.51,0,0,1-.4,0,.41.41,0,0,1-.31-.26Z" transform="translate(0 -0.28)"/><path id="Path_12" data-name="Path 12" class="cls-1" d="M169.5,74.75a.58.58,0,0,0-.49.11.64.64,0,0,0-.14.88.62.62,0,0,0,.51.26.59.59,0,0,0,.37-.12h0a.65.65,0,0,0,.26-.42.62.62,0,0,0-.12-.49A.54.54,0,0,0,169.5,74.75Zm.42.71a.55.55,0,0,1-.2.34.51.51,0,0,1-.7-.1v0a.52.52,0,0,1,.11-.73.56.56,0,0,1,.31-.09h.09a.55.55,0,0,1,.34.2.9.9,0,0,1,0,.4Z" transform="translate(0 -0.28)"/><path id="Path_13" data-name="Path 13" class="cls-1" d="M33.29,75.12a.66.66,0,0,0-.63.68.64.64,0,1,0,.63-.68Zm0,1.16a.51.51,0,1,1,.51-.51h0a.51.51,0,0,1-.51.51Z" transform="translate(0 -0.28)"/><path id="Path_14" data-name="Path 14" class="cls-1" d="M167.28,74.86a.58.58,0,0,0-.48-.11.68.68,0,0,0-.42.25.62.62,0,0,0-.12.49.65.65,0,0,0,.26.42.61.61,0,0,0,.37.12.62.62,0,0,0,.51-.26.63.63,0,0,0-.09-.89Zm.06.83a.51.51,0,0,1-.7.11h0a.52.52,0,0,1-.2-.34.48.48,0,0,1,.09-.4.42.42,0,0,1,.34-.2H167a.59.59,0,0,1,.31.09.56.56,0,0,1,.08.74Z" transform="translate(0 -0.28)"/><path id="Path_15" data-name="Path 15" class="cls-1" d="M31.53,73.7a.58.58,0,0,0-.48,0,.62.62,0,0,0-.4.79h0a.63.63,0,0,0,.59.45.64.64,0,0,0,.2,0,.67.67,0,0,0,.37-.31.58.58,0,0,0,0-.48A.53.53,0,0,0,31.53,73.7Zm.2.82a.49.49,0,0,1-.32.26.53.53,0,0,1-.65-.34.51.51,0,0,1,.32-.65h0a.51.51,0,0,1,.4,0,.5.5,0,0,1,.26.31.67.67,0,0,1,0,.4Z" transform="translate(0 -0.28)"/><path id="Path_16" data-name="Path 16" class="cls-1" d="M166.77,73.16a.66.66,0,0,0,0-.48.56.56,0,0,0-.36-.31.75.75,0,0,0-.49,0,.71.71,0,0,0-.31.37.62.62,0,0,0,.39.79h0a.58.58,0,0,0,.48-.06A.46.46,0,0,0,166.77,73.16Zm-.76.31a.51.51,0,0,1-.35-.63v0a.52.52,0,0,1,.25-.31.6.6,0,0,1,.23-.06.51.51,0,0,1,.17,0,.55.55,0,0,1,.31.25.47.47,0,0,1,0,.4.53.53,0,0,1-.26.31.53.53,0,0,1-.39,0Z" transform="translate(0 -0.28)"/><path id="Path_17" data-name="Path 17" class="cls-1" d="M32.66,72a.56.56,0,0,0-.11-.48.64.64,0,0,0-.88-.14h0a.64.64,0,0,0-.14.88.65.65,0,0,0,.42.26h.12a.63.63,0,0,0,.37-.12A.62.62,0,0,0,32.66,72Zm-.71.4a.55.55,0,0,1-.34-.2.51.51,0,1,1,.83-.59.49.49,0,0,1,.08.39.55.55,0,0,1-.2.35.52.52,0,0,1-.37,0Z" transform="translate(0 -0.28)"/><path id="Path_18" data-name="Path 18" class="cls-1" d="M195.15,73.87s.06,0,.08,0a.4.4,0,0,0,.15,0,4.81,4.81,0,0,0,1.25-2.47c.36-1.33.48-2.84,0-3a.22.22,0,0,0-.22,0,4.66,4.66,0,0,0-1.25,2.47C194.81,72.19,194.67,73.7,195.15,73.87Zm1.31-5.36a.07.07,0,0,1,.08,0h.06c.28.11.34,1.3-.09,2.86a4.58,4.58,0,0,1-1.19,2.39.32.32,0,0,1-.14,0c-.29-.12-.31-1.31.08-2.87a4.81,4.81,0,0,1,1.2-2.38Z" transform="translate(0 -0.28)"/><path id="Path_19" data-name="Path 19" class="cls-1" d="M181.76,59.23a.57.57,0,1,0,.56.56.52.52,0,0,0-.5-.56Zm0,1.05a.46.46,0,0,1-.46-.46.46.46,0,0,1,.91,0,.44.44,0,0,1-.41.46Z" transform="translate(0 -0.28)"/><path id="Path_20" data-name="Path 20" class="cls-1" d="M10,59.4a.57.57,0,1,0,0,1.13.57.57,0,0,0,.57-.57h0A.57.57,0,0,0,10,59.4Zm0,1A.47.47,0,0,1,9.56,60a.46.46,0,0,1,.46-.45.46.46,0,0,1,0,.91Z" transform="translate(0 -0.28)"/><path id="Path_21" data-name="Path 21" class="cls-1" d="M166.86,43.31h-2a.56.56,0,0,0-.56.56v.35a.56.56,0,0,0,.56.56h2a.57.57,0,0,0,.57-.56v-.35A.57.57,0,0,0,166.86,43.31Zm.45.9a.44.44,0,0,1-.44.46h-2a.45.45,0,0,1-.45-.44v-.36a.45.45,0,0,1,.44-.45h2a.44.44,0,0,1,.45.44h0Z" transform="translate(0 -0.28)"/><path id="Path_22" data-name="Path 22" class="cls-1" d="M118.45,48h1.22a1.58,1.58,0,0,0,1.56-1.56V40.92a1.58,1.58,0,0,0-1.56-1.56h-1.22a1.54,1.54,0,0,0-1.56,1.52V46.4A1.53,1.53,0,0,0,118.4,48ZM117,40.9a1.41,1.41,0,0,1,1.39-1.45h1.28a1.45,1.45,0,0,1,1.44,1.45v5.47a1.45,1.45,0,0,1-1.44,1.45h-1.22A1.42,1.42,0,0,1,117,46.43V40.9Z" transform="translate(0 -0.28)"/><path id="Path_23" data-name="Path 23" class="cls-1" d="M107.66,39.36h-1.22a1.54,1.54,0,0,0-1.56,1.52V46.4A1.54,1.54,0,0,0,106.4,48h1.26a1.57,1.57,0,0,0,1.56-1.56V40.92A1.57,1.57,0,0,0,107.66,39.36Zm1.45,7a1.46,1.46,0,0,1-1.45,1.45h-1.22A1.42,1.42,0,0,1,105,46.46V40.92a1.4,1.4,0,0,1,1.38-1.44h1.28a1.45,1.45,0,0,1,1.45,1.44Z" transform="translate(0 -0.28)"/><path id="Path_24" data-name="Path 24" class="cls-1" d="M118.47,47.56h.69c.82,0,1.5-.11,1.67-1.19V41a1.44,1.44,0,0,0-1.22-1.22h-.37c-1,0-1.79,0-2,1.19v5.45A1.23,1.23,0,0,0,118.47,47.56Zm.09-7.49a.2.2,0,0,1,.19-.2h.6a.2.2,0,0,1,.2.19h0v5.85a.21.21,0,0,1-.19.2h-.6a.2.2,0,0,1-.2-.19h0Zm-1.16.85a1.08,1.08,0,0,1,1.13-1.08.27.27,0,0,0-.08.2v.54a1,1,0,0,0-.8.91h0v1.59h0c.09.57.31.82.8.91v1.9a.28.28,0,0,0,.25.31h.65a.29.29,0,0,0,.32-.25V44c.48-.09.7-.37.79-.91h0V41.52h0a1.18,1.18,0,0,0-.79-.94V40a.31.31,0,0,0-.09-.22h0a1.36,1.36,0,0,1,1.11,1.1v5.42c-.17,1.11-.91,1.11-1.88,1.08h-.34a1.06,1.06,0,0,1-1.08-1.08Zm.37.6a.83.83,0,0,1,.68-.8V43.9c-.43-.08-.63-.31-.68-.82Zm2.58,1.56c-.09.6-.37.77-.68.82V40.72a1,1,0,0,1,.68.8Z" transform="translate(0 -0.28)"/><path id="Path_25" data-name="Path 25" class="cls-1" d="M107.63,39.73h-.36c-1,0-1.79,0-2,1.19v5.45a1.19,1.19,0,0,0,1.19,1.19h.68c.83,0,1.51-.11,1.68-1.19V41A1.41,1.41,0,0,0,107.63,39.73Zm-1,.34a.17.17,0,0,1,.15-.2h.64a.18.18,0,0,1,.2.16v5.89a.21.21,0,0,1-.19.2h-.61a.19.19,0,0,1-.2-.16V40.07Zm2.12,6.3c-.17,1.11-.9,1.11-1.87,1.08h-.34a1.07,1.07,0,0,1-1.08-1.08V40.92a1.09,1.09,0,0,1,1.14-1.08.28.28,0,0,0-.09.2v.54a1,1,0,0,0-.79.91h0v1.59h0c.08.57.31.82.79.91v1.9a.3.3,0,0,0,.25.31h.66a.29.29,0,0,0,.31-.25V44a.94.94,0,0,0,.8-.91h0V41.52h0a1.19,1.19,0,0,0-.8-.94V40a.35.35,0,0,0-.08-.22h0a1.35,1.35,0,0,1,1.1,1.1Zm-2.95-4.82a.85.85,0,0,1,.68-.8v3.18c-.42-.08-.59-.31-.68-.82Zm2.58,1.56c-.08.59-.36.76-.68.82V40.75a1,1,0,0,1,.68.8Z" transform="translate(0 -0.28)"/></g></svg>